<svg xmlns="http://www.w3.org/2000/svg" viewBox="0 0 32 32" width="32" height="32">
  <defs>
    <style>
      .node { fill: #673ab7; }
      .connection { stroke: #673ab7; stroke-width: 1.5; fill: none; }
    </style>
  </defs>
  <!-- Neural network connections -->
  <path class="connection" d="M8,12 L16,8 M8,12 L16,16 M8,20 L16,8 M8,20 L16,16 M8,20 L16,24 M16,8 L24,12 M16,16 L24,12 M16,16 L24,20 M16,24 L24,12 M16,24 L24,20"/>
  <!-- Neural network nodes -->
  <circle class="node" cx="8" cy="12" r="2"/>
  <circle class="node" cx="8" cy="20" r="2"/>
  <circle class="node" cx="16" cy="8" r="2"/>
  <circle class="node" cx="16" cy="16" r="2"/>
  <circle class="node" cx="16" cy="24" r="2"/>
  <circle class="node" cx="24" cy="12" r="2"/>
  <circle class="node" cx="24" cy="20" r="2"/>
</svg>