<svg xmlns="http://www.w3.org/2000/svg" viewBox="0 0 32 32" width="32" height="32">
  <defs>
    <style>
      .node { fill: #673ab7; }
      .connection { stroke: #673ab7; stroke-width: 1.5; fill: none; stroke-dasharray: 2,1; }
      .pulse { animation: pulse 2s ease-in-out infinite; }
      .flow { animation: flow 3s linear infinite; }
      @keyframes pulse {
        0%, 100% { opacity: 0.6; transform: scale(1); }
        50% { opacity: 1; transform: scale(1.1); }
      }
      @keyframes flow {
        0% { stroke-dashoffset: 0; }
        100% { stroke-dashoffset: -6; }
      }
    </style>
  </defs>
  <!-- Animated neural network connections -->
  <path class="connection flow" d="M8,12 L16,8 M8,12 L16,16 M8,20 L16,8 M8,20 L16,16 M8,20 L16,24 M16,8 L24,12 M16,16 L24,12 M16,16 L24,20 M16,24 L24,12 M16,24 L24,20"/>
  <!-- Pulsing neural network nodes -->
  <circle class="node pulse" cx="8" cy="12" r="2"><animate attributeName="r" values="2;2.5;2" dur="2s" repeatCount="indefinite"/></circle>
  <circle class="node pulse" cx="8" cy="20" r="2"><animate attributeName="r" values="2;2.5;2" dur="2s" begin="0.3s" repeatCount="indefinite"/></circle>
  <circle class="node pulse" cx="16" cy="8" r="2"><animate attributeName="r" values="2;2.5;2" dur="2s" begin="0.6s" repeatCount="indefinite"/></circle>
  <circle class="node pulse" cx="16" cy="16" r="2"><animate attributeName="r" values="2;2.5;2" dur="2s" begin="0.9s" repeatCount="indefinite"/></circle>
  <circle class="node pulse" cx="16" cy="24" r="2"><animate attributeName="r" values="2;2.5;2" dur="2s" begin="1.2s" repeatCount="indefinite"/></circle>
  <circle class="node pulse" cx="24" cy="12" r="2"><animate attributeName="r" values="2;2.5;2" dur="2s" begin="1.5s" repeatCount="indefinite"/></circle>
  <circle class="node pulse" cx="24" cy="20" r="2"><animate attributeName="r" values="2;2.5;2" dur="2s" begin="1.8s" repeatCount="indefinite"/></circle>
</svg>